<svg xmlns="http://www.w3.org/2000/svg" width="29.985" height="30.587" viewBox="0 0 29.985 30.587">
  <g id="Group_10" data-name="Group 10" transform="translate(0.766 0.845)">
    <g id="Group_8" data-name="Group 8">
      <path id="Path_18" data-name="Path 18" d="M605.676,600.089a12.154,12.154,0,0,0-7.075,8.784,13.243,13.243,0,0,0,1.727,9.113,22.211,22.211,0,0,0,9.9,8.948,5.512,5.512,0,0,0,4.289.131c2.446-.953,6.422-3.263,10.062-8.786a12.344,12.344,0,0,0-5.221-18.311A15.765,15.765,0,0,0,605.676,600.089Z" transform="translate(-598.398 -598.467)" fill="none" stroke="#3f3f3f" stroke-miterlimit="10" stroke-width="1.5"/>
      <path id="Path_19" data-name="Path 19" d="M617.528,641.574a3.4,3.4,0,0,1-2.975,1.615,5.777,5.777,0,0,1-5.423-3.208c-1.852-3.915-.959-7.262,1.878-7.652C616.56,631.568,619.5,638.266,617.528,641.574Z" transform="translate(-605.492 -623.031)" fill="none" stroke="#3f3f3f" stroke-miterlimit="10" stroke-width="1.5"/>
      <path id="Path_20" data-name="Path 20" d="M657.294,641.574a3.4,3.4,0,0,0,2.975,1.615,5.777,5.777,0,0,0,5.423-3.208c1.852-3.915.958-7.262-1.878-7.652C658.262,631.568,655.327,638.266,657.294,641.574Z" transform="translate(-640.751 -623.031)" fill="none" stroke="#3f3f3f" stroke-miterlimit="10" stroke-width="1.5"/>
      <path id="Path_21" data-name="Path 21" d="M635.806,680.129s3.968,3.015,7.764,0" transform="translate(-625.581 -657.808)" fill="none" stroke="#3f3f3f" stroke-linecap="round" stroke-linejoin="round" stroke-width="1.5"/>
    </g>
  </g>
</svg>
